<mxfile host="app.diagrams.net" modified="2024-02-27T00:26:10.270Z" agent="Mozilla/5.0 (Macintosh; Intel Mac OS X 10_15_7) AppleWebKit/537.36 (KHTML, like Gecko) Chrome/121.0.0.0 Safari/537.36" version="23.1.7" etag="EneF-7zNFxUU_9PHmqT7" type="github">
  <diagram name="Page-1" id="8kZoSgBzjpJfbGOUuAeJ">
    <mxGraphModel>
      <root>
        <mxCell id="0" />
        <mxCell id="1" parent="0" />
      </root>
    </mxGraphModel>
  </diagram>
</mxfile>
